<svg width="25" height="25" viewBox="0 0 25 25" fill="none" xmlns="http://www.w3.org/2000/svg">
<path d="M1.8575 1.8575C0.125 3.6065 0.125 6.40325 0.125 12.005V12.995C0.125 18.5885 0.125 21.3853 1.8575 23.1425C3.6065 24.875 6.40325 24.875 12.005 24.875H12.995C18.5885 24.875 21.3853 24.875 23.1425 23.1425C24.875 21.3935 24.875 18.5968 24.875 12.995V12.005C24.875 6.4115 24.875 3.61475 23.1425 1.8575C21.3935 0.125 18.5968 0.125 12.995 0.125H12.005C6.4115 0.125 3.61475 0.125 1.8575 1.8575ZM4.2995 7.65725H7.1375C7.22825 12.3762 9.30725 14.3727 10.9573 14.7852V7.65725H13.622V11.7245C15.2472 11.5512 16.9633 9.695 17.5408 7.649H20.1973C19.9805 8.70805 19.5477 9.71105 18.926 10.5954C18.3043 11.4797 17.5069 12.2264 16.5837 12.7887C17.6142 13.3014 18.5243 14.0268 19.2538 14.9171C19.9833 15.8073 20.5158 16.8421 20.816 17.9532H17.8873C17.2603 15.998 15.6927 14.48 13.622 14.2738V17.9532H13.292C7.649 17.9532 4.4315 14.0922 4.2995 7.65725Z" fill="#3B5998"/>
</svg>
