<svg width="28" height="28" viewBox="0 0 28 28" fill="none" xmlns="http://www.w3.org/2000/svg">
<path d="M27.3203 6.72929C27.3092 6.15726 27.2634 5.58643 27.183 5.01996C27.0872 4.5161 26.9244 4.02731 26.699 3.56663C26.2055 2.59236 25.4143 1.80073 24.4403 1.30663C23.9826 1.08224 23.497 0.919922 22.9963 0.823959C22.4255 0.741936 21.8502 0.695181 21.2737 0.683959C21.0297 0.674626 20.7137 0.670626 20.567 0.670626L7.43633 0.666626C7.28966 0.666626 6.97366 0.670626 6.72966 0.679959C6.15762 0.690981 5.58679 0.736844 5.02033 0.817293C4.51646 0.913079 4.02768 1.07586 3.56699 1.30129C2.59278 1.79489 1.80117 2.58604 1.30699 3.55996C1.08267 4.01771 0.92035 4.50332 0.824326 5.00396C0.74193 5.57474 0.69473 6.15005 0.682992 6.72663C0.674992 6.97063 0.669659 7.28663 0.669659 7.43329L0.666992 20.564C0.666992 20.7106 0.670992 21.0266 0.680326 21.2706C0.691348 21.8427 0.73721 22.4135 0.817659 22.98C0.913461 23.4838 1.07624 23.9726 1.30166 24.4333C1.79526 25.4075 2.58641 26.1991 3.56033 26.6933C4.01809 26.9176 4.5037 27.0799 5.00433 27.176C5.57512 27.258 6.15044 27.3047 6.72699 27.316C6.97099 27.3253 7.28699 27.3293 7.43366 27.3293L20.5643 27.332C20.711 27.332 21.027 27.328 21.271 27.3186C21.843 27.3076 22.4139 27.2617 22.9803 27.1813C23.4842 27.0854 23.9729 26.9227 24.4337 26.6973C25.4084 26.2039 26.2005 25.4128 26.695 24.4386C26.9193 23.9809 27.0817 23.4953 27.1777 22.9946C27.2601 22.4239 27.3073 21.8485 27.319 21.272C27.327 21.028 27.3323 20.712 27.3323 20.5653L27.3337 7.43596C27.3337 7.28929 27.3297 6.97329 27.3203 6.72929ZM14.2897 23.276H14.2857C12.6985 23.2756 11.1368 22.8778 9.74299 22.1186L4.70299 23.44L6.05233 18.516C5.0076 16.703 4.59016 14.5961 4.86472 12.5218C5.13929 10.4475 6.09053 8.52173 7.57096 7.04307C9.05138 5.5644 10.9783 4.61545 13.0529 4.34335C15.1275 4.07125 17.234 4.4912 19.0456 5.53808C20.8573 6.58497 22.273 8.2003 23.0732 10.1336C23.8734 12.067 24.0134 14.2103 23.4715 16.2313C22.9296 18.2523 21.7361 20.0381 20.076 21.3118C18.416 22.5854 16.3821 23.2759 14.2897 23.276Z" fill="#25D366"/>
<path d="M14.2936 5.86803C12.8818 5.86762 11.4955 6.24547 10.2792 6.96228C9.06277 7.6791 8.06063 8.7087 7.37696 9.94402C6.69328 11.1793 6.35305 12.5753 6.39162 13.9866C6.4302 15.398 6.84618 16.7732 7.59632 17.9694L7.78432 18.268L6.98565 21.1827L9.97632 20.3987L10.2643 20.5694C11.4818 21.2904 12.8707 21.6708 14.2856 21.6707H14.2896C16.3854 21.6711 18.3954 20.8389 19.8776 19.3572C21.3598 17.8755 22.1926 15.8658 22.193 13.77C22.1933 11.6743 21.3611 9.66425 19.8795 8.18208C18.3978 6.69992 16.3881 5.86705 14.2923 5.8667L14.2936 5.86803ZM18.939 17.1614C18.7642 17.45 18.5316 17.6993 18.2558 17.8937C17.98 18.088 17.6669 18.2232 17.3363 18.2907C16.8372 18.3763 16.3249 18.3443 15.8403 18.1974C15.3807 18.0541 14.929 17.8868 14.487 17.696C12.8466 16.8728 11.4484 15.6373 10.4296 14.1107C9.87388 13.404 9.53653 12.5504 9.45898 11.6547C9.45258 11.285 9.52325 10.918 9.6665 10.5771C9.80974 10.2362 10.0224 9.92887 10.291 9.6747C10.3704 9.58416 10.4676 9.51101 10.5766 9.45984C10.6856 9.40867 10.804 9.38059 10.9243 9.37737C11.0816 9.37737 11.2403 9.37737 11.379 9.38537C11.5256 9.39203 11.7203 9.32937 11.9123 9.79337C12.1123 10.268 12.587 11.4374 12.6456 11.556C12.6833 11.6182 12.7049 11.6889 12.7083 11.7615C12.7118 11.8341 12.6972 11.9065 12.6656 11.972C12.6058 12.1147 12.5259 12.248 12.4283 12.368C12.3083 12.5067 12.179 12.6774 12.0723 12.784C11.9523 12.9027 11.8296 13.0307 11.967 13.268C12.3237 13.8788 12.769 14.4332 13.2883 14.9134C13.8518 15.4144 14.4984 15.8132 15.199 16.092C15.4363 16.212 15.575 16.1907 15.7136 16.032C15.8523 15.8734 16.307 15.3387 16.4656 15.1014C16.6243 14.864 16.7816 14.904 16.999 14.9827C17.2163 15.0614 18.3856 15.636 18.623 15.756C18.8603 15.876 19.019 15.9334 19.0776 16.032C19.1427 16.4139 19.0945 16.8065 18.939 17.1614Z" fill="#25D366"/>
</svg>
