<svg width="27" height="27" viewBox="0 0 27 27" fill="none" xmlns="http://www.w3.org/2000/svg">
<rect width="26.7" height="26.7" rx="6" fill="black"/>
<ellipse cx="13.5" cy="13" rx="11.5" ry="12" fill="white"/>
<path d="M25.0418 12.8085C25.0439 12.8085 25.0455 12.8085 25.0476 12.8085C25.1966 12.8085 25.3387 12.746 25.4396 12.6365C25.5421 12.5255 25.5929 12.3765 25.5795 12.2259C25.0434 6.32892 20.3746 1.65855 14.4771 1.12135C14.3276 1.1096 14.177 1.1582 14.0659 1.26126C13.9549 1.36379 13.8929 1.5085 13.8945 1.65962C13.9874 9.49661 15.0213 12.699 25.0418 12.8085ZM25.0418 13.8914C15.0213 14.0009 13.988 17.2033 13.8951 25.0403C13.8935 25.1914 13.9554 25.3361 14.0665 25.4386C14.1658 25.53 14.2956 25.5807 14.4291 25.5807C14.4451 25.5807 14.4616 25.5802 14.4776 25.5786C20.3751 25.0413 25.0439 20.3715 25.5795 14.474C25.5929 14.3234 25.5427 14.1744 25.4396 14.0634C25.3365 13.9523 25.1929 13.8973 25.0418 13.8914ZM12.1879 1.12402C6.30905 1.67671 1.65524 6.34601 1.12177 12.2269C1.10842 12.3775 1.15862 12.5265 1.26168 12.6376C1.36261 12.7471 1.50519 12.809 1.65364 12.809C1.65577 12.809 1.65791 12.809 1.66005 12.809C11.6474 12.6942 12.6786 9.4934 12.7726 1.66176C12.7742 1.51064 12.7117 1.36539 12.6006 1.26286C12.4885 1.16033 12.3384 1.11014 12.1879 1.12402ZM1.65951 13.8909C1.49344 13.8722 1.36314 13.9512 1.26115 14.0623C1.15862 14.1734 1.10789 14.3224 1.12124 14.473C1.65471 20.3539 6.30905 25.0232 12.1879 25.5759C12.2044 25.5775 12.2215 25.578 12.2381 25.578C12.3716 25.578 12.5008 25.5278 12.6001 25.4365C12.7112 25.334 12.7737 25.1887 12.7721 25.0376C12.6781 17.2065 11.6474 14.0057 1.65951 13.8909Z" fill="black"/>
</svg>
